 <!DOCTYPE svg PUBLIC "-//W3C//DTD SVG 1.1//EN" "http://www.w3.org/Graphics/SVG/1.1/DTD/svg11.dtd">
<svg id="afb09120-f4b2-4332-aac9-7b3187556de6" data-name="Layer 1" xmlns="http://www.w3.org/2000/svg" width="865.76" height="682.89" viewBox="0 0 865.76 682.89">
<defs>
<style xmlns="http://www.w3.org/1999/xhtml">*, ::after, ::before { box-sizing: border-box; }
img, svg { vertical-align: middle; }
</style>
<style xmlns="http://www.w3.org/1999/xhtml">*, body, html { -webkit-font-smoothing: antialiased; }
img, svg { max-width: 100%; }
</style>
</defs>
<path d="M391.86,337.77l-2,0L391,298.88l-12.63-.4.47-13.13,20.5,2.37.4-14.36,11.45,2.87L410.82,291h6.53l-1.59-14.36,14.08,1.88-1.95,15.59c3.62-.06,14.2.32,18,6.9,2.85,4.91,1.2,12-4.92,21.13L439.33,321c5.66-8.42,7.29-14.82,4.85-19-3.91-6.74-17.22-5.87-17.35-5.86l-1.22.09,2-16L418,279l1.56,14H408.77l.4-15.21-7.48-1.87-.39,14-20.52-2.36-.32,9,12.61.39Z" fill="#000000" data-secondary="true"/>
<path d="M409.53,318.09a20.23,20.23,0,0,1-5.54-.68l-.68-.2-.84-18.1.28-.3c.21-.23,5.33-5.57,17.26-1.05l.19.1c.24.16,6,3.92,6.92,9a7.56,7.56,0,0,1-1.49,6,10.8,10.8,0,0,1-6.44,4A46.65,46.65,0,0,1,409.53,318.09Zm-4.29-2.42c4.38,1,10.29,0,13.52-.72a8.81,8.81,0,0,0,5.26-3.26,5.55,5.55,0,0,0,1.13-4.47c-.72-3.92-5.28-7.17-6-7.63-9.11-3.42-13.55-.61-14.69.32Z" fill="#000000" data-secondary="true"/>
<path d="M401.49,331.15l1.08-9.18.66-.18c.26-.07,6.55-1.69,10.07,2.27l.88,1Zm2.9-7.56-.49,4.18,6.85-3.28C408.59,323.08,405.67,323.37,404.39,323.59Z" fill="#000000" data-secondary="true"/>
<path d="M161.25,326.46s-30.64,13.76-14.07,33.15a48,48,0,0,1-8.89-5,13.11,13.11,0,0,1-5.65-9.75C132.28,338.52,136.6,329.71,161.25,326.46Z" fill="#000000" data-secondary="true"/>
<polygon points="665.25 375.11 610.03 393.77 657.42 366.53 665.25 375.11" fill="#000000" data-secondary="true"/>
<polygon points="654.36 325.06 661.32 352.99 679.93 345.07 654.36 325.06" fill="#000000" data-secondary="true"/>
<path d="M604,397.6l-1.39-11.84.52-.34c.43-.27,40.35-25.91,79.25-42.12l12.78-52.73c-14.88-8.61-29.59-16.89-29.85-17l-1.59-.9,33.55-18a51.91,51.91,0,0,1,7.41-3.34l5.11-21.06c.3-2.06,0-2.85-.24-3-.5-.28-2.16.63-3.26,1.59l-.15.1L606.88,288.1l-.55-.5c-21-19-66.05-46.94-66.51-47.22-36.79-20-49.07-35.86-49.57-36.53l-.61-.8.81-.6c3.67-2.76,24.79-11,46.77-19.2-3.48-29.07,5.62-61.57,5.72-61.92.71-3.6,2.07-5.75,4-6.3,2.63-.74,5.07,1.83,5.17,1.94,10.63,11.37,62.36,45.31,68.29,49.19l1-.64c.9-5.49-.1-8.2-1.1-9.49a3.6,3.6,0,0,0-2.34-1.48l-.29-.07c-21.93-8.55-59.75-36.07-64-39.18a1.35,1.35,0,0,1-.55-1.26,1.38,1.38,0,0,1,.83-1.12l57.65-24.54c3.12-2.29,6.12-3.24,8.92-2.82a8.71,8.71,0,0,1,5.3,3c30,22.37,57.53,39.14,57.8,39.31l-1,1.7c-.27-.16-27.9-17-58.06-39.49l-.21-.21c-.16-.22-4.14-5.36-11.61.21l-.2.12-56.76,24.16c7.07,5.15,41.92,30.15,62.53,38.23a5.71,5.71,0,0,1,3.55,2.16c1.64,2.07,2.23,5.25,1.77,9.47,13.36-7.9,51.89-28.68,60.32-33.22a1.9,1.9,0,0,1,2.79,1.88c-1.46,13-10.85,56.48-13.16,67.08,11.69,6.15,20,9.81,20.21,9.88l.1.05c5.22,2.94,8,6,8.36,9.23a6.1,6.1,0,0,1-1.89,5c-18.85,13.76-80.07,43.24-80.68,43.54-12.22,6.31-21.21-3.91-22.06-4.94-6.82-5.94-58.46-39-59-39.29-14.08-7.43-19.26-12.14-19.47-12.34-1.85-1.62-2.6-3.42-2.22-5.32,1.14-5.69,12.88-10.45,19.78-12.79a2.4,2.4,0,0,0,1.61-2.73c-.33-1.63-.61-3.28-.84-4.94-20.29,7.55-39.69,15.1-45,18.17,3.05,3.55,16.59,18,48.3,35.18.49.31,44.95,27.83,66.3,47L705,227.28c.72-.61,3.53-2.84,5.47-1.78s1.39,4.1,1.24,5.11l-4.84,20c14.63-4.37,24.53.83,25,1.1l.12.08,36.67,27.35a1.49,1.49,0,0,1,.6,1.19l.4,0c2.95,26.54-5.87,51.95-6,52.21l-.11.21c-7.17,11.06-48.93,30.31-50.71,31.13l-1.35.62-.06-1.49c-.59-13.78,9.45-42.29,10.09-44.11a51.23,51.23,0,0,0,1.75-11.3c-.75-.51-1.63-1.08-2.64-1.72-2.7,2.79-5.15,10.07-6.71,20.12a8.58,8.58,0,0,1-4.48,6.24l-19.14,10.07c-2.1.81-4.21,1.66-6.33,2.53l-.71,2.91c.12,1.38.09,8.49-12,12.69Zm.74-10.84.9,7.65,64.88-35.89.08,0c11.69-4,10.78-10.66,10.77-10.73l0-.2.45-1.84C645.89,360.86,609.5,383.73,604.72,386.76Zm118-82c.82.53,1.54,1,2.16,1.43l.39.27,0,.48c0,.15.29,3.81-1.8,12.44l0,.1c-.11.29-9.84,27.78-10,41.89,7.42-3.49,42.08-20.15,48.41-29.65.62-1.81,8.31-25.07,6-49.71l-13.46,7.54C737.25,300.31,726.21,303.8,722.75,304.72Zm-25.81-13.1-12.3,50.74q2.5-1,5-2l19-10a6.53,6.53,0,0,0,3.43-4.78c1.18-7.56,3.3-16.77,7-20.89C713.42,301.25,705.25,296.43,696.94,291.62Zm.49-2c8.75,5.07,17.42,10.18,23.14,13.75l.34-.2.28-.1c.12,0,11.94-2.51,32.21-15.25l13.49-7.55-36-26.84c-.84-.42-10.63-5.06-24.58-.54Zm-29.58-16.9c4.15,2.34,15.85,9,27.78,15.86l8.46-34.9a48.56,48.56,0,0,0-5.89,2.74ZM539.4,184.58c.25,1.77.54,3.54.89,5.27a4.41,4.41,0,0,1-2.93,5c-10.88,3.68-17.78,7.89-18.46,11.28-.23,1.17.29,2.29,1.6,3.45.07.06,5.26,4.77,19.13,12.09,2.22,1.41,52.67,33.68,59.36,39.58l.12.13c.34.42,8.34,10.3,19.66,4.46.65-.31,61.7-29.71,80.34-43.31h0a4.15,4.15,0,0,0,1.14-3.28c-.27-2.45-2.8-5.09-7.31-7.63-.71-.31-8.71-3.85-19.81-9.68,0,.19-.06.3-.07.32l-.06.3-.23.22c-14.51,13.49-48.34,30.63-58.37,35.57a2.9,2.9,0,0,1-4.18-2.68c.37-13.4,8.19-54.66,10.54-66.79-7-3.39-20.35-8.52-28.61-3.45l-.19.09C591.46,165.71,565.06,175.05,539.4,184.58Zm83.22-14.75c-2.45,12.73-10,53-10.4,65.91a.88.88,0,0,0,.41.78.86.86,0,0,0,.89,0c9.91-4.87,43.22-21.75,57.66-35l.12-.55c-13.59-7.22-31.24-17.63-45.94-29.66C625.12,171.18,624.13,170.61,622.62,169.83Zm.4-2.07c2,1,3.23,1.77,3.44,1.89l.11.09c14.42,11.81,31.73,22,45.17,29.22,2.48-11.39,11.48-53.19,13-66.13-9.11,4.91-50,27-61.51,33.94C623.16,167,623.1,167.37,623,167.76ZM547.94,116.9a1.63,1.63,0,0,0-.45.06c-1.12.32-2,2-2.61,4.84-.12.41-9,32.21-5.73,60.74,24.49-9.11,49.44-17.94,52-18.86,6.13-3.69,14.4-2.52,21.39-.28-15.93-10.53-52.86-35.38-61.92-45.06A4.53,4.53,0,0,0,547.94,116.9Z" fill="#000000" data-secondary="true"/>
<path d="M682.4,387.61c-3.57,0-7.23-1.92-10.86-5.7l-15-13.79,1.35-1.48,15.06,13.84c3.28,3.42,6.45,5.13,9.46,5.13h.12a7.67,7.67,0,0,0,5.27-2.22l.12-.12.15-.08,37.32-20.44-4-3.15L713,363.79l-7.1,2.69-.44-.34c-8.85-6.84-51.25-40-51.68-40.29l-.27-.21-.08-.34c-1.65-6.58,10.08-48.19,11.42-52.91l1.93.55c-3.54,12.45-12.36,45.49-11.48,51.56,3.74,2.92,41.65,32.52,50.94,39.71l6-2.26,9.46-4.7,7.38,5.8-39.85,21.82a9.7,9.7,0,0,1-6.56,2.74Z" fill="#000000" data-secondary="true"/>
<path d="M582.33,396.05a4.68,4.68,0,0,1-1.48-.24c-63.43-21-103.31-69.49-103.7-70l-.2-.24,0-.3c-2.36-26.93,12.49-118.33,13.13-122.2l2,.32c-.15.94-15.33,94.31-13.14,121.39,3.08,3.68,42,49,102.59,69.11a2.69,2.69,0,0,0,2.13-.2A2.75,2.75,0,0,0,585,392c3.76-14.51,22.46-87.76,21-105l2-.17c1.42,17.15-15.79,85.24-21.1,105.7a4.8,4.8,0,0,1-2.33,3A4.73,4.73,0,0,1,582.33,396.05Z" fill="#000000" data-secondary="true"/>
<path d="M706.56,402.26c-15.72,0-34.21-.44-51.66-2-1.48,0-38.72.35-51.46-2.4l.42-2c12.53,2.71,50.74,2.37,51.12,2.37,29.79,2.59,62.53,2.06,79.41,1.51a58.18,58.18,0,0,0,16.72-3c53.83-18.24,51.34-45.06,51.31-45.33-1.86-16.76-39.28-18.38-39.65-18.4l.07-2c1.61.06,39.51,1.71,41.56,20.17.14,1.15,2.7,28.69-52.65,47.44a59.7,59.7,0,0,1-17.3,3.07C727.44,402,717.69,402.26,706.56,402.26Z" fill="#000000" data-secondary="true"/>
<path d="M478.68,408.05c-1.49,0-11.55-.88-38.48-21.7l1.22-1.58c23.21,18,33.44,20.77,36.36,21.2.1-15.83,9.58-71.85,10-74.29l.09-.52,60.71-27.84c1.21-.63,2.7-1.68,2.67-2.92,0-1.94-3.55-4.24-5.74-5.23-13.72-6.48-62.17-37.36-62.66-37.67l1.08-1.68c.49.31,48.82,31.11,62.42,37.53.68.31,6.79,3.18,6.9,7,0,1.83-1.23,3.44-3.79,4.78l-59.8,27.42c-1,6-10.23,61.23-9.87,74.47l0,.95-.94.08Z" fill="#000000" data-secondary="true"/>
<path d="M479.24,407.94l-.9-1.79c38.4-19.2,54.75-30.06,61.08-34.82a5.4,5.4,0,0,0,2.15-4.67c-1.77-25.56,8.68-51.1,9.52-53.11,1.32-9-.4-10.83-.42-10.84l1.18-1.61c.66.44,2.71,2.67,1.2,12.87l-.07.25c-.11.26-11.22,26.3-9.42,52.3a7.34,7.34,0,0,1-2.94,6.4C534.24,377.73,517.77,388.67,479.24,407.94Z" fill="#000000" data-secondary="true"/>
<path d="M603.06,237.06c-14.52,0-56.27-39.88-58.09-41.63l1.38-1.44c12.56,12,47.42,42.91,57.54,41a2.63,2.63,0,0,0,2-1.45l6.27-35.86,2,.35-6.32,36.12-.06.12a4.63,4.63,0,0,1-3.49,2.68A6.61,6.61,0,0,1,603.06,237.06Z" fill="#000000" data-secondary="true"/>
<path d="M355.11,354.13c-22.13-37.12-8.72-61,6.43-74.55,13.11-11.7,30.55-18.14,49.12-18.14h.2c31.47.08,46.56,10.66,53.67,19.53,7.78,9.68,8,19.24,8,19.64l-2,0a33.47,33.47,0,0,0-7.64-18.52c-9.83-12.16-27.83-18.62-52-18.68h-.19c-18.08,0-35,6.26-47.79,17.63-14.59,13-27.48,36.08-6,72Z" fill="#000000" data-secondary="true"/>
<path d="M478.26,290.12c-10.19-27.36-48.8-38.24-60.39-40.92a1.62,1.62,0,0,0-1.3.23,1.69,1.69,0,0,0-.75,1.12l-1.4,7.48-2-.37,1.41-7.48a3.68,3.68,0,0,1,4.46-2.93c11.84,2.74,51.28,13.88,61.82,42.17Z" fill="#000000" data-secondary="true"/>
<path d="M337.52,355.67c-.13-.36-13.28-36.29,2.5-67.29,9.56-18.77,27.57-31.95,53.54-39.16a17.89,17.89,0,0,1,8.3-.35c5,1,7.45,4,6.82,8.48l-2-.28c.48-3.38-1.23-5.42-5.24-6.24a15.81,15.81,0,0,0-7.37.32c-25.4,7-43,19.88-52.28,38.13-15.38,30.2-2.55,65.34-2.42,65.69Z" fill="#000000" data-secondary="true"/>
<path d="M478.62,325.92l-1.39-1.44L484,318a3.78,3.78,0,0,0,1-3.53c-2.6-11.15-24.79-12.86-25-12.88l.15-2c1,.07,23.89,1.85,26.81,14.42a5.74,5.74,0,0,1-1.6,5.42Z" fill="#000000" data-secondary="true"/>
<path d="M318.64,409.66c-59.82,0-156.44-7.08-157.48-7.15-42.76-3-67-13.67-79.89-22.11-13.22-8.69-17.37-16.71-17.94-17.93-2-2.29-2.5-4.53-1.61-6.66,4.33-10.35,43.51-13.46,51.3-14a26.33,26.33,0,0,1,7.85-16.24c7.51-7.43,19.37-11.07,35.3-10.77,2.38-.34,49.55-6.54,87.93,23.4,1,.66,25.89,17.25,27.11,29l0,.32-.16.28a5.25,5.25,0,0,1-1.76,1.73c12.82-1.28,31.67-4,49.39-9.85,1.19-.55,16-7.13,41.7-6.38,1.5-.3,19-4,28.93-14.67.17-.19,18.43-20,47.75-17.67l-.16,2c-28.35-2.32-45.94,16.83-46.11,17-10.77,11.56-29.36,15.16-30.14,15.3l-.11,0h-.11c-25.85-.78-40.81,6.15-41,6.22l-.11,0c-30.94,10.19-65.32,11.06-65.66,11.07C176.65,377,147,362.26,137.87,355.73a14.09,14.09,0,0,1-5.56-7.91,12.66,12.66,0,0,1,1.9-10.95c7.17-10,28.13-11.75,29-11.82,33.15-3.28,57.92,7.68,72.84,17.45,15.78,10.33,24,21.23,24.69,22.21,2.39,2.5,4.56,3.72,6.3,3.54a3.2,3.2,0,0,0,2.11-1.2c-1.62-10.8-26-27-26.24-27.2-38.55-30.07-86.07-23.11-86.55-23h-.17C140.8,316.53,129.4,320,122.28,327a24,24,0,0,0-7.3,15.75v.95l-.95.06c-12.87.78-47,4.6-50.47,12.81-.6,1.42-.15,3,1.36,4.68l.17.26c.14.33,15.56,33.37,96.2,39,1.13.09,113,8.27,170.39,7l0,2C327.62,409.62,323.24,409.66,318.64,409.66ZM175.11,326.45q-5.67,0-11.71.59c-.23,0-20.94,1.75-27.57,11a10.62,10.62,0,0,0-1.58,9.3A12,12,0,0,0,139,354.1c9,6.41,38.13,20.84,114.62,16.54.13,0,4.38-.11,11.16-.68a13.92,13.92,0,0,1-5.54-3.93l-.09-.1C258.88,365.51,229.87,326.45,175.11,326.45Z" fill="#000000" data-secondary="true"/>
<path d="M63.86,363.08s13.94,52.08,58.68,52.08c0,0,18.33,0,35.2,6.6,0,0,19.07,1.46,38.14,15.4,0,0,33.17,31.54,97.85-6.72,0,0,44.56-22.69,76.75-5.78,0,0,15.55,3.79,15.14,54.54,0,0,36.84,12.31,23.23,25.92,0,0-10.79,10.41-24.1-26,0,0-12.72-6.81-20.12-14.79s-16.86-24.26-39.05-24.56c0,0-20.7,1.68-34.9,13.12,0,0-18.93,13.41-53.64,18.53,0,0-27.61,0-24.46,14.6,0,0,2.76,11.83,41,3.94,0,0,45-11,73.76,7.1,0,0,11.44,6.71,28.79,32.35,0,0,20.91,29.18,39.45,17.35,0,0-13.2-29,22.69-25.17a11.36,11.36,0,0,0,4.84-.52c6.44-2.18,25.54-7.33,45.43,0,0,0,11.79,5.6,15.75,13.8A8.94,8.94,0,0,1,477,547.74c-6.08.58-16-.39-29.33-8,0,0-15.38-12-25.24-11.44l-22.88,16.17s27.21,15.39,30.37,23.87,9.66,42.2,31.55,29.38a101.59,101.59,0,0,0,21.7-19.52s12.22-10.06,28-10.46c0,0,36.64,7.12,65.83-52.43a23.1,23.1,0,0,0-3-9.15c-2.83-4.84-6.89-6.7-8.78-7.76-20.3-5.39-33.45-18.24-31.31-27.51a19.81,19.81,0,0,1,7.54-11.44A33.16,33.16,0,0,1,562,452.52S605,473,579.4,512.08c0,0,5.52,32.74,24.85,17.36,0,0,12.22-7.1,12.62-33.53s7.2-38.36,12.52-39.25c0,0,17.16-5.91,10.35,30.18,0,0-24,63.3-7.69,71,0,0,16.86,13.32,21.3-18.93,0,0,2.37-21-1.48-37,0,0-21.59-64.48,10.65-77.5,0,0,33.13-2.66,14.2,38.75,0,0-18.64,31.65-9.47,36.09s14.8-1.48,31.66-25.44,12.13-24.26,29.87-30.76c0,0,74.26-16.57,69.52-75.73,0,0-8.34,31.48-48.68,41.92-8.09,2.09-15.83,3.73-24.18,3.89a163.48,163.48,0,0,1-36.8-3.55A133.17,133.17,0,0,0,673,407.52c-22.73-1.61-86.36-4.79-109,12.46,0,0-13.6,17.16-28.39,16,0,0-18.35.59-23.08,13.6,0,0,0,8.88-9.46,9.47,0,0-20.71,4.14-10.06,16.57l16.44,15.92a21.06,21.06,0,0,1,5.48,8.63c1.72,5.36,1.57,12.47-10.29,13.9,0,0-14.89,3.26-19.62-19.52,0,0-1.48-26.62-33.43-23.08,0,0-20.41,3.26-16.56-7.39,0,0,.59-2.07,10.35-8,0,0,16-5.91-10.06-22.18,0,0-39-31.95-103.83-21.89,0,0-70.11,17.45-109.45,9.46,0,0-61.14-1.67-104.92-18.24C117.13,403.22,82,393.94,63.86,363.08Z" fill="#c3ff00" data-primary="true"/>
<path d="M126.29,344.92s-62.64,3-52.39,21.65c0,0,16.32,24.67,106.69,33.41,0,0,110.86,6.83,166.29,2.27,0,0,46.7-.75,52-12.52,0,0,6.75-8,19.77-10,0,0,35.69-3.35,32.93-32.54,0,0-6.31-15.38,14.6-20.9,0,0,33.13-6.31-5.52-25.64,0,0,17,13.17,3.18,19.69a12.53,12.53,0,0,1-5.73,1.12c-9.48-.26-42.67-.32-51.1,11.14l-28.72,21.24A25.28,25.28,0,0,1,366,358.72a57.1,57.1,0,0,1-18.25-1.16s-8.18-2.85-42.1,10.56c0,0-57.59,17.55-116.75,6.31C188.92,374.43,136.44,369.85,126.29,344.92Z" fill="#c3ff00" data-primary="true"/>
<path d="M477,321.39s3.33,6.66-14.26,13.32c0,0-10.47,3.33-4.28,19.5,0,0,13.31,21.87-26.16,35.67,0,0-21.4,5.23-22.83,18.54,0,0,91,27.48,141.22-2.57a78.66,78.66,0,0,1,22.75-9.46c9.39-2.14,21.07-3.33,30.24.52,0,0,37.28,2.76,59,2.76,0,0,28.4,1.58,45.36,1.58l29.58-.4s42.2-5.91,60.74-33.52c0,0-10.16,41.94-73.12,46.6,0,0-18,.43-43.43-5.19a199.84,199.84,0,0,0-28.6-1.77s-59.88-2.49-83.95,10.21a23.85,23.85,0,0,0-7,5C558,427,547.29,437.49,535.62,436c0,0-11.37.38-18.8,7.57a17.23,17.23,0,0,0-4.54,8.47c-.63,2.58-2.67,6.39-9.2,7,0,0-20.42,3.85-10.06,16.57l16.79,16.26a20.75,20.75,0,0,1,5.23,8.07c1.8,5.25,2.14,12.52-10,14.32,0,0-15.15,4.6-20-19.72,0,0-2.07-26.33-33.43-23.08,0,0-18.3,2.62-17.54-5.18A5.46,5.46,0,0,1,435.7,463a37.1,37.1,0,0,1,9.69-6.93s10.54-3.41-.37-14.57c0,0-47.85-44.13-123-27.43,0,0-60.54,14.59-100,7.39,0,0-67.55-2.46-104.92-18.24,0,0-34.75-8.49-53.27-40.14,0,0,22.7,33.83,89.56,37.38,0,0,119,19.83,178.45,7.94,0,0,23.12-3,42.94-4.72a46.41,46.41,0,0,0,20.71-7c7.11-4.45,17.6-10.28,28.47-13.61a93.32,93.32,0,0,0,22.09-10.65s11.05-7.49,5.52-25.24c0,0-6.7-15,14.6-20.9A19.41,19.41,0,0,0,477,321.39Z" fill="#000000" data-secondary="true"/>
<path d="M375.87,349.18s-30.76-36.68,4.34-80.06c0,0-60.74,23.66-24.45,84.8C355.76,353.92,359.7,355.49,375.87,349.18Z" fill="#000000" data-secondary="true"/>
<path d="M458.53,322.4l-.79-1.84c5.89-2.51,8.88-5,8.66-7.3-.46-4.62-13.8-9.09-22.1-10.82l.41-2c2.34.49,22.93,5,23.68,12.58C468.72,316.37,465.49,319.43,458.53,322.4Z" fill="#000000" data-secondary="true"/>
<rect x="471.2" y="226.26" width="2" height="9.25" transform="translate(-9.22 19.9) rotate(-2.39)" fill="#000000" data-secondary="true"/>
<rect x="463.11" y="225.87" width="2" height="9.25" transform="translate(-9.19 19.51) rotate(-2.38)" fill="#000000" data-secondary="true"/>
<rect x="461.2" y="232.77" width="32.78" height="2" transform="translate(216.23 696.83) rotate(-86.64)" fill="#000000" data-secondary="true"/>
<rect x="483.68" y="321.36" width="2" height="12.08" transform="translate(-93.76 414.09) rotate(-42.56)" fill="#000000" data-secondary="true"/>
<path d="M229.55,373.69c-15.26,0-43.54-2.64-44.94-2.77l-.48,0-16.84-26.19-13.47.64-.9-6.73h16.94l-2.79-8.06,8-.42.28.64a83.42,83.42,0,0,0,5,10.3c.8-.14,2.76-.65,4.64-1.19l-2.64-7.28,9.32.41,3.72,9c11.95-.63,20,1.57,24,6.53a12.19,12.19,0,0,1,2.46,9.39C238.1,362,237,372.12,237,372.55l-.1.79-.78.08A61.5,61.5,0,0,1,229.55,373.69ZM185.28,369c4.46.41,38.37,3.44,49.72,2.54-.13-2.3-1.66-8.95-14.56-11.87l-1-.24.29-1a10.18,10.18,0,0,0-1.91-8.64c-3.59-4.44-11.56-6.42-23-5.72l-.71,0-3.78-9.14-5.06-.22,2.35,6.47-1,.3A49.65,49.65,0,0,1,180,343.1c-.66,0-1.56,0-6.27-10.91l-3.92.21,2.84,8.2H155.2l.36,2.65,12.79-.61Z" fill="#000000" data-secondary="true"/>
<path d="M187.21,357.51l-5.82-12.37,1.22-.27c.55-.11,13.33-2.84,20.21,3,.53.36,3.19,2.28,2.54,4.66-.51,1.87-2.89,4.41-17.49,5Zm-2.92-10.9,4.16,8.85c13.15-.57,14.79-2.79,15-3.47.24-.85-1.08-2-1.76-2.49l-.1-.08C196.61,345.18,187.59,346.09,184.29,346.61Z" fill="#000000" data-secondary="true"/>
<path d="M216.79,373.58c-3.08,0-9.12-.35-20.35-2l-.55-.08L191,360.23l1.47-.06c.73,0,18.08-.56,25,6a8.61,8.61,0,0,1,2.89,6.24l0,.82-.79.18A13.77,13.77,0,0,1,216.79,373.58Zm-19.51-3.93c13.55,2,19.12,2,21.05,1.89a6.72,6.72,0,0,0-2.18-3.93c-5.24-4.93-17.8-5.43-22.11-5.45Z" fill="#000000" data-secondary="true"/>
<path d="M270.36,357.89l-8.9-8.9.7-.71c2.67-2.67,9.06-4.37,11.11-4.86,1.65-5.46,15.2-13.16,20.12-15.8-45.11-27-86.16-6.75-86.57-6.54l-.91-1.78c.43-.22,43.35-21.41,90,7.54l1.5.93-1.57.81c-7.82,4-20.37,11.86-20.76,15.77l-.07.73-.72.15c-.07,0-6.78,1.48-10,3.82l6.43,6.43c5-2.25,37.2-15.66,66.94-.58l-.9,1.78c-31.26-15.84-65.47.72-65.81.89Z" fill="#000000" data-secondary="true"/>
<path d="M335.85,349.7c-24.69-10-61.22-4.52-61.58-4.46l-.31-2c.37-.05,37.44-5.65,62.65,4.59Z" fill="#000000" data-secondary="true"/>
<path d="M332.49,328.67s-21.7-14.2-54.43,14.6c0,0,29.58-17.75,56-6.31Z" fill="#000000" data-secondary="true"/>
<path d="M287.22,332.54c-21.43-21.05-71.28-8.68-71.78-8.55l-.49-1.94c2.08-.53,51.43-12.77,73.67,9.06Z" fill="#000000" data-secondary="true"/>
<path d="M223.06,321.8s46.52,2.24,59.21,13.69l5.72-3.74S269.83,312.1,223.06,321.8Z" fill="#000000" data-secondary="true"/>
<path d="M268.45,316.52l-1.39-1.44c.45-.44,11.36-10.7,32.76-8.36.29,0,27,3.7,34.63-3.21l1.34,1.48c-8.33,7.54-35.09,3.87-36.22,3.71C279.19,306.48,268.55,316.42,268.45,316.52Z" fill="#000000" data-secondary="true"/>
<path d="M147.17,317.19l-.22-2c2.86-.32,9.78-5.43,12.2-9.6a27.89,27.89,0,0,0,2.94-8.13c.61-2.73,2.57-6.09,5.83-10a21.33,21.33,0,0,0,4.28-8.12c1.11-4.05,2.92-6.73,5.37-8a6.66,6.66,0,0,1,5.08-.42,16,16,0,0,1,5.8,3.49c6.45-15.12,19.41-11.26,19.55-11.21,5.83,1.45,12.95.36,13,.35,3.75-.72,8.2,2.21,12.39,6.33-.44-3.43-.83-6.21-.9-6.67-3.36-11.77,10.26-17.25,12.34-18,9.66-10.5,29.35-3.09,30.19-2.77a15,15,0,0,1,7.1,4.26l6.36-15.47a8.14,8.14,0,0,1,6.41-3.61h.35c7.58,0,16,9.69,16.37,10.11a27.49,27.49,0,0,0,6.25,5.66,64.08,64.08,0,0,1,13.35,11.85,274,274,0,0,1,17.19,22.39l-1.66,1.12a272.69,272.69,0,0,0-17-22.21,62.31,62.31,0,0,0-12.94-11.48,29.55,29.55,0,0,1-6.69-6c-.06-.07-8.16-9.39-14.82-9.39H295a6.12,6.12,0,0,0-4.8,2.71l-6.67,16.31c.17.32.34.64.49,1,2.6,5.87-.07,13.24-1.89,17.1a25.88,25.88,0,0,0-2.39,8.7l.81.07.26,0,.21.15c.23.15,5.6,3.8,4.8,9.69a3,3,0,0,1-2.09,2.46,3,3,0,0,1-3.17-.9c-1.88-2.11-2.86-5.23-2.9-9.26v-.46c-12-1.64-16.27-6.77-16.45-7-2.19-2.57-3.2-5.11-3-7.52a9,9,0,0,1,3.61-6.12,15.76,15.76,0,0,1,9.07-3.36,16.25,16.25,0,0,0,10.24-4.55,12.74,12.74,0,0,0-6.74-4.3c-.26-.1-19.55-7.35-28.22,2.4l-.18.2-.26.09c-.59.19-14.43,4.85-11.28,15.71l0,.14c.05.34.67,4.69,1.26,9.45a120.09,120.09,0,0,1,12.47,17.13l.1.23a39.18,39.18,0,0,0,1.41,4.12c.61.07,1.25.13,1.92.16l.2,0c.29.08,7.08,1.89,8.58,6a2.67,2.67,0,0,1-.31,2.43,2.82,2.82,0,0,1-2.24,1.25c-2.3.11-6.3-1-9.53-8-12.66-2-13.53-11.66-13.54-11.76,0-2.07-.46-6.47-1-10.68-4.39-4.78-9-8.33-12.46-7.66-.34.05-7.62,1.17-13.9-.4-.56-.17-12-3.49-17.56,11a10.76,10.76,0,0,1,.95,1.77c1.9,4.53.25,9.52-.91,12.1a16.89,16.89,0,0,0-1.52,7.9l0,.36a10,10,0,0,0,3.46,2.28c.24.09,6.91,2.56,7.42,7.25a2.51,2.51,0,0,1-3.27,2.67,13.41,13.41,0,0,1-9.53-11.33,10.76,10.76,0,0,1-1.93-3.36c-2.76-7.65,2.37-17.89,2.93-18.95l.12-.36a13.31,13.31,0,0,0-5.71-3.7,4.61,4.61,0,0,0-3.5.35c-1.91,1-3.36,3.24-4.31,6.7a23.51,23.51,0,0,1-4.67,8.88c-3,3.59-4.89,6.74-5.41,9.12a29.73,29.73,0,0,1-3.17,8.7C158.09,311.41,150.55,316.81,147.17,317.19Zm41.88-15.8a11.43,11.43,0,0,0,7.62,7.26.52.52,0,0,0,.67-.56c-.31-2.86-4.55-5-6.15-5.6A12.3,12.3,0,0,1,189.05,301.39ZM250.69,296c2.59,5,5.42,5.84,7.11,5.77a.83.83,0,0,0,.65-.37.67.67,0,0,0,.09-.62c-.93-2.56-5.36-4.25-7.11-4.73Zm-61.76-17.36c-1.21,2.59-4.58,10.7-2.45,16.6v0a19.47,19.47,0,0,1,1.63-6c1-2.27,2.49-6.66.88-10.5C189,278.71,189,278.65,188.93,278.59Zm47.22-2.7c.37,3.27.65,6.31.65,8,0,.27.75,7.51,10.63,9.63-.35-.94-.68-2-1-3.08A121.16,121.16,0,0,0,236.15,275.89Zm43.5,1.57v.21c.05,4.4,1.33,6.76,2.39,7.95a1,1,0,0,0,1.1.31,1,1,0,0,0,.69-.81c.55-4.07-2.87-7-3.73-7.62Zm2.53-27A18.22,18.22,0,0,1,271,255.23a13.69,13.69,0,0,0-7.93,2.9,7.11,7.11,0,0,0-2.9,4.75c-.16,1.86.7,3.91,2.54,6.07.06.07,4,4.71,15,6.27a27.73,27.73,0,0,1,2.56-9.31c1.68-3.56,4.15-10.29,1.87-15.44Z" fill="#000000" data-secondary="true"/>
<path d="M247.66,313.67l-.24-1.79a4.87,4.87,0,0,1,1.34-3.7c2.06-2.37,6.13-3.59,12.08-3.62.78-.35,4.26-2.12,4.26-5.45,0-.23-.09-6,3.42-7.88,2.25-1.23,5.31-.56,9.09,2l.15.12c.07.07,7.07,7,13.33,6,2.68-.43,4.9-2.29,6.6-5.53A1.58,1.58,0,0,1,298,293c.7-.88,2.28-1.3,5-1.26a19.73,19.73,0,0,0,18.24-11.36,27.68,27.68,0,0,0,1.45-4c.16-.67,4.23-17.14,12.62-15.89l.4.06,5.45,7-.37.59a13.05,13.05,0,0,0-1.28,6,12.24,12.24,0,0,1-3.51,8.21,49,49,0,0,0-8.31,11.45c-.27,1.09-2.16,5.47-15,5.31a12.36,12.36,0,0,0-7.43,2.25l-.09.07a22.58,22.58,0,0,1-12.63,4.21,34.86,34.86,0,0,1-11-1.65c-.74-.12-8.75-1.35-14.26,2.59-.67.7-5.09,5-13.57,4.46-1,.09-3.56.49-4.71,1.45Zm13.39-7.11c-6.73,0-9.55,1.56-10.73,2.87a4.44,4.44,0,0,0-.3.37,16.1,16.1,0,0,1,3.65-.74h.14c8.13.52,12.07-3.83,12.1-3.88l.17-.14c6.45-4.7,15.55-3.06,15.93-3l.12,0a32.77,32.77,0,0,0,10.44,1.58,20.49,20.49,0,0,0,11.5-3.85l.1-.06a14.49,14.49,0,0,1,8.61-2.62c12,.2,13-3.78,13-3.82l.09-.27a51.26,51.26,0,0,1,8.7-12.06,10.18,10.18,0,0,0,3-6.85,16.09,16.09,0,0,1,1.26-6.36l-4.13-5.34h-.2c-5.16,0-8.81,10.32-9.81,14.45a31.18,31.18,0,0,1-1.57,4.34A21.76,21.76,0,0,1,303,293.75a7.39,7.39,0,0,0-3.26.41h0l-.17.34c-2,4-4.77,6.25-8.17,6.79-7,1.1-14.14-5.65-15-6.47-3-2-5.43-2.67-6.94-1.85-2,1.1-2.4,4.78-2.38,6.11,0,5.13-5.46,7.32-5.69,7.41l-.18.06Z" fill="#000000" data-secondary="true"/>
<path d="M548.81,381.41s-43.64,21.68-70,25.63c0,0,50.61-26,57.93-33Z" fill="#000000" data-secondary="true"/>
<path d="M613.57,238.2c12-2.94,68.58-17.16,81.91-26.16l-22.81-11.17s-16.2,16.29-59.24,36.88A.24.24,0,0,0,613.57,238.2Z" fill="#000000" data-secondary="true"/>
<rect x="592.55" y="125.51" width="27.27" height="2" transform="matrix(0.14, -0.99, 0.99, 0.14, 393.93, 708.23)" fill="#000000" data-secondary="true"/>
<rect x="594.45" y="115.2" width="44.06" height="2" transform="translate(418.86 711.6) rotate(-82.31)" fill="#000000" data-secondary="true"/>
<rect x="615.7" y="119.37" width="11.87" height="2" transform="translate(425.09 722.28) rotate(-82.87)" fill="#000000" data-secondary="true"/>
<path d="M647.28,95.65l-22.4-17.13a3.94,3.94,0,0,0-4.37-.27L605.7,86.89l-1-1.73,14.81-8.64a5.93,5.93,0,0,1,6.6.42l22.39,17.12Z" fill="#000000" data-secondary="true"/>
<rect x="653.51" y="83.77" width="2" height="18.74" transform="translate(125.84 490.09) rotate(-45)" fill="#000000" data-secondary="true"/>
<path d="M720,235.26l-2-.15,1-13.81a8.79,8.79,0,0,0-4-8.06l-25.52-16.47,1.08-1.68,25.53,16.47a10.79,10.79,0,0,1,4.91,9.89Z" fill="#000000" data-secondary="true"/>
<path d="M731.31,221.54l-2-.18c.91-10-9.16-15.16-9.27-15.21l.9-1.79C721.06,204.42,732.34,210.19,731.31,221.54Z" fill="#000000" data-secondary="true"/>
<path d="M717.56,358.44l7.67-3.32c.31-.13,30.64-13.36,36.72-23.51l.34-.57,23.14,3.49-1.6,1.42c-15.44,13.62-56.3,20.77-58,21.07Zm45.74-25.23c-4.9,7.31-20.19,15.58-29.61,20.18,12.36-2.71,35.48-8.7,47.1-17.54Z" fill="#000000" data-secondary="true"/>
<path d="M357.1,258.09l-1.94-.49c.07-.28,1.78-7,6.52-10.84L363,248.3C358.71,251.77,357.11,258,357.1,258.09Z" fill="#000000" data-secondary="true"/>
<path d="M348.94,267.46c-2-15-7.41-19.52-7.47-19.56l1.25-1.57c.24.2,6.12,5,8.21,20.87Z" fill="#000000" data-secondary="true"/>
<rect x="349.14" y="237.62" width="2" height="6.2" transform="translate(-15.26 23.85) rotate(-3.82)" fill="#000000" data-secondary="true"/>
<path d="M94.4,341.72l-.15-2,14.17-1a2.62,2.62,0,0,0,2.35-2c1.28-4.91,6.13-17.38,23.23-27.12l1,1.74c-16.44,9.37-21.07,21.23-22.29,25.89a4.61,4.61,0,0,1-4.13,3.43Z" fill="#000000" data-secondary="true"/>
<rect x="101.78" y="329.73" width="2" height="5.38" transform="translate(-222.11 207.87) rotate(-51.84)" fill="#000000" data-secondary="true"/>
<path d="M109.1,330.64c-1.69-1.36-3.1-7-3.37-8.11l2-.46c.69,2.89,1.91,6.39,2.67,7Z" fill="#000000" data-secondary="true"/>
<path d="M718.25,375.69l-.44-1.95c.18,0,18-4.24,15.65-15.22l1.95-.42C738.18,371,719.07,375.5,718.25,375.69Z" fill="#000000" data-secondary="true"/>
<rect x="730.27" y="370.48" width="6.49" height="2" transform="translate(-74.46 523.88) rotate(-37.54)" fill="#000000" data-secondary="true"/>
<rect x="738.34" y="372.26" width="4.21" height="2" transform="translate(-62.69 579.57) rotate(-41.16)" fill="#000000" data-secondary="true"/>
<path d="M451.87,607.18a16.08,16.08,0,0,1-1.84-.11c-5.46-.64-10.44-4.08-14.82-10.22a35.5,35.5,0,0,1-6.12-17.37,21.48,21.48,0,0,0-4.32-10.91,24.62,24.62,0,0,0-11.69-8.15c-9.22-3.2-14.41-7.56-17.3-11.69-16.1,8.36-30.29-4.68-35.66-10.7a81,81,0,0,0-8.48-8.27l-29.51-24.69C297.3,484,264,493,263.66,493.14c-44.26,12.57-59.21-1.89-62.73-6.62a6.06,6.06,0,0,1-1.33-4.12c.78-10.2,25.78-11.54,28.63-11.66C259.12,469.3,281,457.37,289,452.3a95.52,95.52,0,0,1,19.11-9.52c32.79-11.73,46.89,2.87,49.38,5.91.57.69,1.14,1.39,1.73,2.06,5.37,6.07,10.27,11.92,14.58,17.38a37.54,37.54,0,0,0,9.22,8.31c-10.69-34.08-20.5-41.48-20.6-41.55-33.55-26.72-87.69,10.48-88.23,10.86l-.15.08c-27.35,13-52.92,8.64-69.56,2.67a108.52,108.52,0,0,1-29.83-16.21c-16.79-14.31-50.16-16.36-50.5-16.37-25.78,0-41-14.83-49.22-27.27A84.75,84.75,0,0,1,63.2,361.48l2-.39A84.65,84.65,0,0,0,76.62,387.6c11.56,17.46,27.57,26.32,47.58,26.32,1.45.08,34.43,2.1,51.73,16.84.44.37,46,37.55,97.17,13.3a144.11,144.11,0,0,1,31.95-15.8c23.94-8.16,44.19-6.42,58.57,5,.4.28,10.76,7.93,21.95,44.66a37.88,37.88,0,0,0,4.43,2c18.6,7.24,22.6,14.65,22.67,19.6a7.88,7.88,0,0,1-7.07,8c-11.54,1-20.81-25.45-21.2-26.58l-.51-1.7a39.82,39.82,0,0,1-11.67-9.94c-4.29-5.43-9.17-11.25-14.51-17.3-.6-.69-1.19-1.4-1.77-2.11-2.35-2.86-15.64-16.58-47.17-5.3A94,94,0,0,0,290.06,454c-8.11,5.15-30.37,17.28-61.74,18.75-7.25.31-26.18,2.66-26.72,9.81a4.26,4.26,0,0,0,.93,2.78c3.33,4.47,17.55,18.1,60.59,5.88.34-.09,34.65-9.47,60.3,12.34l29.5,24.67a84,84,0,0,1,8.69,8.47c6.26,7,18.84,17.62,33.1,10.35a19.32,19.32,0,0,1-1.71-4,11.84,11.84,0,0,1,7.06-14.37c6.68-2.62,14.71-2.79,22.73-1.73a91.84,91.84,0,0,1,15.37-7.07,38,38,0,0,1,13.08-2c11.65.28,32.05,2.73,37.8,16.11a8.39,8.39,0,0,1-.43,7.54,8.26,8.26,0,0,1-6.2,4.14c-5.26.67-12.69-.92-22.1-4.73-.32-.16-18.79-9.28-37.2-11.9a177.16,177.16,0,0,0-25.76,18.39c2.66,3.85,7.54,8,16.38,11a26.53,26.53,0,0,1,12.63,8.84,23.3,23.3,0,0,1,4.72,11.91,33.62,33.62,0,0,0,5.75,16.41c4,5.66,8.56,8.82,13.44,9.4s10.43-1.62,16.11-6.56l8.83-9.76c1.43-1.57,2.87-3.35,4.56-5.58a22,22,0,0,1,22.52-8.59c.08,0,10.26,1.78,24.29-4.51,13-5.82,32-19.94,49-54.12l.17-.24s.23-.25.58-.66c-2.6-13.7-12.32-15.92-12.77-16A170.84,170.84,0,0,1,542.81,492a25,25,0,0,1-9.45-6.87c-11.76-14.09,2.92-27.59,3.07-27.72l.09-.08c7.84-5.51,15.72-7.46,23.43-5.81,14.17,3.05,22.62,17.07,23,17.66,13.33,21.27-.16,41-4.51,46.46.21,1.29.36,2.66.45,4.12a18,18,0,0,0,2.9,9.24c3,4.44,9,9.13,20.13,6.2a33.76,33.76,0,0,0,13.79-7.55A60.4,60.4,0,0,0,626,515.54a100.55,100.55,0,0,0-1.42-24.65c-3.72-20.06-1.47-28.54,1.07-32.12a5.45,5.45,0,0,1,3.3-2.5h.13a6.85,6.85,0,0,1,5.44,2.3c5.64,6.11,3.94,22.65,3.86,23.36A67.71,67.71,0,0,1,628,516.19a86.6,86.6,0,0,1-2,13.58,56.09,56.09,0,0,0-1.59,13c0,5.05.52,12.16,2.75,17.4a9.41,9.41,0,0,0,6.41,5.5,9.26,9.26,0,0,0,8.14-1.82c6.37-5.16,16.49-18.16,12.74-47.15a66.87,66.87,0,0,0-2.54-11.35c-4.3-13.69-16.81-59.77,3-77.69a12.86,12.86,0,0,1,15.88-1.2c7.26,4.92,14.09,16.06,5.42,41.15l-.1.2L661.6,491.21c-1.39,2.55-4.5,10-2,13.33,1.5,2,4.89,2.35,10.08,1.14.27-.06,26.86-6.59,40.11-44,.23-.66,6.05-16.3,29.7-19.17a72.2,72.2,0,0,0,18.18-4.4c20.43-8.16,52.82-28.16,40.26-70.47l1.91-.57c5.76,19.4,2.92,36.29-8.44,50.19-9.55,11.69-23.21,18.8-33,22.71a74,74,0,0,1-18.68,4.53c-22.37,2.7-28,17.7-28.06,17.85-13.63,38.53-41.26,45.25-41.54,45.31-6,1.4-10.11.77-12.12-1.88-3.8-5,1.62-15.12,1.85-15.54l14.46-23.33c8.21-23.82,2-34.21-4.68-38.74a10.88,10.88,0,0,0-13.42,1c-18.93,17.12-6.66,62.2-2.44,75.61a70,70,0,0,1,2.62,11.69c3.87,30-6.78,43.54-13.47,49A11.36,11.36,0,0,1,625.29,561c-2.36-5.54-2.88-12.94-2.91-18.17A58.47,58.47,0,0,1,624,529.32a81.43,81.43,0,0,0,1.63-9.76,61.54,61.54,0,0,1-8.64,9.57,35.82,35.82,0,0,1-14.61,8c-12.3,3.21-18.92-2-22.3-7a20.1,20.1,0,0,1-3.24-10.26c0-.6-.08-1.2-.14-1.77-17.09,33.92-36.3,48-49.47,53.9-14.57,6.48-24.91,4.65-25.34,4.58a19.81,19.81,0,0,0-20.54,7.82c-1.73,2.29-3.21,4.1-4.68,5.72L467.74,600C462.27,604.77,456.94,607.18,451.87,607.18Zm-37.95-78.79a36.17,36.17,0,0,0-13.13,2.17,9.84,9.84,0,0,0-5.88,11.93,17.19,17.19,0,0,0,1.38,3.27,182.24,182.24,0,0,1,23.55-17.07C417.84,528.5,415.86,528.39,413.92,528.39Zm12.11-.92c17.53,3,34.06,11.18,35.1,11.7,9,3.65,16.12,5.2,21,4.57a6.28,6.28,0,0,0,4.71-3.16,6.38,6.38,0,0,0,.33-5.75c-5.5-12.81-27-14.69-36-14.9a36,36,0,0,0-12.39,1.87A85,85,0,0,0,426,527.47Zm111.69-68.54c-1,.89-13.15,12.53-2.82,24.91a23.09,23.09,0,0,0,8.69,6.31,169.33,169.33,0,0,0,20.4,7c.06,0,10.52,2.31,13.89,15.92,4.82-6.53,15.07-24.09,3.33-42.83-.09-.16-8.38-13.89-21.69-16.74C552.4,451.94,545.06,453.77,537.72,458.93Zm91.5-.68c-.57.18-8.08,3.17-2.69,32.25A101.16,101.16,0,0,1,628.15,512a66.74,66.74,0,0,0,8.23-30.18c0-.23,1.68-16.41-3.34-21.85A4.86,4.86,0,0,0,629.22,458.25ZM386.37,480.6c2.58,7.37,10.86,25.73,19.05,25a6,6,0,0,0,5.25-6c-.05-3.55-2.91-10.57-21.4-17.76C388.29,481.47,387.32,481.05,386.37,480.6Z" fill="#000000" data-secondary="true"/>
</svg>