 <!DOCTYPE svg PUBLIC "-//W3C//DTD SVG 1.1//EN" "http://www.w3.org/Graphics/SVG/1.1/DTD/svg11.dtd">
<svg xmlns="http://www.w3.org/2000/svg" xmlns:xlink="http://www.w3.org/1999/xlink" width="865.76" height="682.89" viewBox="0 0 865.76 682.89">
<defs>
<clipPath id="a">
<rect x="42.92" y="150.96" width="463.06" height="459.03" fill="none"/>
</clipPath>
<clipPath id="b">
<path d="M382,203.11s51.56,61.24,62.42,72.47S455.62,295,452.12,300s-29.84,14.35-57,31.78-104.29,62.42-105,64-8.16-54.36-8.16-54.36L411,288.31l-.39-3.89-41.87-77.53Z" fill="none"/>
</clipPath>
<clipPath id="c">
<path d="M279.14,299.24l38.77,58.93L300.07,381a450.56,450.56,0,0,0-26.73-45c-13.19-18.6-14.74-21.7-14.74-21.7Z" fill="none"/>
</clipPath>
<style xmlns="http://www.w3.org/1999/xhtml">*, ::after, ::before { box-sizing: border-box; }
img, svg { vertical-align: middle; }
</style>
<style xmlns="http://www.w3.org/1999/xhtml">*, body, html { -webkit-font-smoothing: antialiased; }
img, svg { max-width: 100%; }
</style>
</defs>
<path d="M796.23,341.24c-6.83-54.36-23.9-106.85-44.29-144.48C702.67,106.35,565.42,45.87,462,61.51c-88.2,13.33-130.58,93.8-210.1,121.72-73.17,25.69-139,45.53-173.53,113.31C5.33,439.73,183.93,596.26,337,584.06c48.32-3.87,91.48-22.45,141.07-13.73,100.66,17.7,134.08,36.72,223,1.33C788.66,536.77,808.17,436.32,796.23,341.24Z" fill="#c3ff00" data-primary="true"/>
<path d="M796.23,341.24c-6.83-54.36-23.9-106.85-44.29-144.48C702.67,106.35,565.42,45.87,462,61.51c-88.2,13.33-130.58,93.8-210.1,121.72-73.17,25.69-139,45.53-173.53,113.31C5.33,439.73,183.93,596.26,337,584.06c48.32-3.87,91.48-22.45,141.07-13.73,100.66,17.7,134.08,36.72,223,1.33C788.66,536.77,808.17,436.32,796.23,341.24Z" fill="#fff" opacity="0.8" style="isolation:isolate"/>
<polyline points="444.04 614.88 358.18 422.61 566.25 422.61 822.84 591.87" fill="#e6e6e6"/>
<polygon points="422.74 607.31 358.18 435.44 358.18 422.61 449.52 623.84 422.74 607.31" fill="#ccc"/>
<polygon points="477.14 430.57 565.65 534.31 458.22 559.34 397.17 443.37 477.14 430.57" fill="#c3ff00" data-primary="true"/>
<polygon points="458.22 559.34 458.22 562.4 563.81 541.04 565.65 534.31 458.22 559.34" fill="#263238" stroke="#263238" stroke-linecap="round" stroke-linejoin="round" stroke-width="0.75"/>
<polygon points="473.8 467.89 478.33 474.58 489.85 471.46 485.05 464.93 473.8 467.89" fill="#000000" data-secondary="true"/>
<polygon points="517.39 508.78 511.91 501.37 498.82 504.9 503.94 512.47 517.39 508.78" fill="#000000" data-secondary="true"/>
<polygon points="464.4 453.96 467.76 458.95 478.59 456.2 475.19 451.56 464.4 453.96" fill="#000000" data-secondary="true"/>
<polygon points="485.26 484.82 491.46 494 504.12 490.8 497.27 481.52 485.26 484.82" fill="#000000" data-secondary="true"/>
<polygon points="518.05 489.13 507.2 491.89 512.64 499.26 523.69 496.28 518.05 489.13" fill="#000000" data-secondary="true"/>
<polygon points="492.56 495.62 497.74 503.31 510.74 499.78 505.29 492.37 492.56 495.62" fill="#000000" data-secondary="true"/>
<polygon points="452.14 456.68 455.48 462.07 465.87 459.42 462.46 454.38 452.14 456.68" fill="#000000" data-secondary="true"/>
<polygon points="479.4 476.17 484.19 483.23 496.11 479.93 491.01 473.03 479.4 476.17" fill="#000000" data-secondary="true"/>
<polygon points="468.85 460.54 472.71 466.28 483.87 463.34 479.76 457.77 468.85 460.54" fill="#000000" data-secondary="true"/>
<polygon points="445.41 473.49 442.03 467.39 429.69 470.53 433.13 476.73 445.41 473.49" fill="#000000" data-secondary="true"/>
<polygon points="427.68 488.25 436.15 485.97 432.23 478.89 423.89 481.08 427.68 488.25" fill="#000000" data-secondary="true"/>
<polygon points="448.47 450.76 451.11 455.03 461.36 452.75 458.6 448.69 448.47 450.76" fill="#000000" data-secondary="true"/>
<polygon points="441.1 465.72 437.84 459.84 425.3 462.6 428.76 468.86 441.1 465.72" fill="#000000" data-secondary="true"/>
<polygon points="436.29 453.24 438.79 457.75 449.22 455.45 446.54 451.14 436.29 453.24" fill="#000000" data-secondary="true"/>
<polygon points="418.76 471.42 426.93 469.32 423.43 463.02 415.27 464.81 418.76 471.42" fill="#000000" data-secondary="true"/>
<polygon points="421.76 456.22 424.37 460.93 436.92 458.17 434.4 453.62 421.76 456.22" fill="#000000" data-secondary="true"/>
<polygon points="461.16 471.24 465.38 478.06 476.46 475.08 471.93 468.4 461.16 471.24" fill="#000000" data-secondary="true"/>
<polygon points="489.58 494.49 483.4 485.35 471.87 488.53 477.46 497.57 489.58 494.49" fill="#000000" data-secondary="true"/>
<polygon points="439.71 459.42 442.94 465.26 453.61 462.54 450.25 457.1 439.71 459.42" fill="#000000" data-secondary="true"/>
<polygon points="442.13 496.72 433.43 499.12 437.94 507.63 446.9 505.36 442.13 496.72" fill="#000000" data-secondary="true"/>
<polygon points="466.39 479.69 470.86 486.9 482.32 483.76 477.55 476.67 466.39 479.69" fill="#000000" data-secondary="true"/>
<polygon points="458.3 470.11 454.61 464.17 443.86 466.91 447.25 473.03 458.3 470.11" fill="#000000" data-secondary="true"/>
<polygon points="478.49 533.22 466.19 536.37 470.58 544.28 482.92 541.24 478.49 533.22" fill="#000000" data-secondary="true"/>
<polygon points="459.44 446.65 469.98 444.5 464.32 436.81 453.95 438.52 459.44 446.65" fill="#000000" data-secondary="true"/>
<polygon points="433.47 451.95 428.38 442.75 415.48 444.88 420.83 454.55 433.47 451.95" fill="#000000" data-secondary="true"/>
<polygon points="450.22 482.17 446.34 475.14 434.06 478.38 437.98 485.47 450.22 482.17" fill="#000000" data-secondary="true"/>
<polygon points="481.57 507.68 476.62 499.68 463.81 502.94 468.4 511.24 481.57 507.68" fill="#000000" data-secondary="true"/>
<polygon points="475.61 498.05 470.01 489.03 457.95 492.35 462.89 501.27 475.61 498.05" fill="#000000" data-secondary="true"/>
<polygon points="495.87 503.81 490.67 496.1 478.47 499.2 483.42 507.17 495.87 503.81" fill="#000000" data-secondary="true"/>
<polygon points="463.53 478.56 459.3 471.72 448.15 474.68 452.04 481.66 463.53 478.56" fill="#000000" data-secondary="true"/>
<polygon points="456.49 463.7 460.15 469.6 470.84 466.79 466.95 461.03 456.49 463.7" fill="#000000" data-secondary="true"/>
<polygon points="469.01 487.42 464.54 480.19 452.94 483.31 457.05 490.72 469.01 487.42" fill="#000000" data-secondary="true"/>
<polygon points="502.09 512.99 496.95 505.42 484.43 508.8 489.2 516.51 502.09 512.99" fill="#000000" data-secondary="true"/>
<polygon points="493.81 527.43 488.36 518.63 474.58 522.41 479.42 531.09 493.81 527.43" fill="#000000" data-secondary="true"/>
<polygon points="452.54 515.53 447.83 507.01 438.83 509.31 443.42 518 452.54 515.53" fill="#000000" data-secondary="true"/>
<polygon points="437.08 487.62 428.56 489.92 432.57 497.47 441.2 495.09 437.08 487.62" fill="#000000" data-secondary="true"/>
<polygon points="477.56 531.57 472.77 522.9 460.57 526.24 465.26 534.69 477.56 531.57" fill="#000000" data-secondary="true"/>
<polygon points="455.22 491.21 451.13 483.82 438.89 487.12 443.04 494.59 455.22 491.21" fill="#000000" data-secondary="true"/>
<polygon points="460.55 448.28 463.29 452.33 474 449.95 471.16 446.11 460.55 448.28" fill="#000000" data-secondary="true"/>
<polygon points="414.39 463.14 422.5 461.35 419.88 456.6 411.79 458.25 414.39 463.14" fill="#000000" data-secondary="true"/>
<polygon points="447.43 449.09 457.49 447.04 451.96 438.84 442.09 440.47 447.43 449.09" fill="#000000" data-secondary="true"/>
<polygon points="435.37 451.56 445.53 449.49 440.14 440.79 430.29 442.43 435.37 451.56" fill="#000000" data-secondary="true"/>
<polygon points="431.32 477.24 427.86 470.99 419.64 473.09 423 479.41 431.32 477.24" fill="#000000" data-secondary="true"/>
<polygon points="471.95 444.1 481.05 442.22 475.33 435 466.33 436.47 471.95 444.1" fill="#000000" data-secondary="true"/>
<polygon points="418.94 454.93 413.54 445.18 405.57 446.51 410.9 456.56 418.94 454.93" fill="#000000" data-secondary="true"/>
<polygon points="464.36 536.83 454.69 539.28 458.88 547.18 468.75 544.74 464.36 536.83" fill="#000000" data-secondary="true"/>
<polygon points="510.28 525.11 496.67 528.57 501.64 536.61 515.7 533.12 510.28 525.11" fill="#000000" data-secondary="true"/>
<polygon points="494.82 529.06 480.32 532.74 484.77 540.77 499.77 537.07 494.82 529.06" fill="#000000" data-secondary="true"/>
<polygon points="526.39 521 512.17 524.63 517.59 532.66 532.31 529.02 526.39 521" fill="#000000" data-secondary="true"/>
<polygon points="540.38 517.44 528.3 520.52 534.24 528.55 546.72 525.45 540.38 517.44" fill="#000000" data-secondary="true"/>
<polygon points="458.76 526.74 449.4 529.3 453.81 537.63 463.43 535.18 458.76 526.74" fill="#000000" data-secondary="true"/>
<polygon points="487.35 517.02 482.58 509.31 469.33 512.89 473.68 520.76 487.35 517.02" fill="#000000" data-secondary="true"/>
<polygon points="509.19 523.5 503.15 514.58 490.21 518.12 495.66 526.94 509.19 523.5" fill="#000000" data-secondary="true"/>
<polygon points="471.87 521.25 467.5 513.37 455.28 516.7 459.67 524.59 471.87 521.25" fill="#000000" data-secondary="true"/>
<polygon points="448.53 527.65 457.86 525.09 453.47 517.18 444.31 519.65 448.53 527.65" fill="#000000" data-secondary="true"/>
<polygon points="461.06 501.76 456.14 492.86 443.94 496.22 448.74 504.88 461.06 501.76" fill="#000000" data-secondary="true"/>
<polygon points="525.22 519.41 518.55 510.37 505.03 514.08 511.09 523.02 525.22 519.41" fill="#000000" data-secondary="true"/>
<polygon points="466.59 511.72 461.98 503.41 449.66 506.55 454.37 515.04 466.59 511.72" fill="#000000" data-secondary="true"/>
<polygon points="499.17 481 506.03 490.3 516.8 487.56 509.39 478.18 499.17 481" fill="#000000" data-secondary="true"/>
<polygon points="485.78 462.84 495.32 460.32 491.03 454.91 481.69 457.28 485.78 462.84" fill="#000000" data-secondary="true"/>
<polygon points="477.16 451.14 480.5 455.69 489.81 453.34 486.44 449.09 477.16 451.14" fill="#000000" data-secondary="true"/>
<polygon points="539.13 515.87 531.92 506.71 520.45 509.85 527.13 518.93 539.13 515.87" fill="#000000" data-secondary="true"/>
<polygon points="486.95 464.43 491.76 470.93 501.58 468.27 496.55 461.89 486.95 464.43" fill="#000000" data-secondary="true"/>
<polygon points="513.8 500.85 519.28 508.28 530.7 505.16 524.92 497.85 513.8 500.85" fill="#000000" data-secondary="true"/>
<polygon points="475.95 449.53 485.19 447.5 482.32 443.83 473.16 445.71 475.95 449.53" fill="#000000" data-secondary="true"/>
<polygon points="498 479.43 508.17 476.61 502.83 469.85 492.93 472.52 498 479.43" fill="#000000" data-secondary="true"/>
<path d="M579.68,442.16v16.47a32,32,0,0,1-5.5,4.27c-3,1.83-28.06,6-28.06,6l31.73,34.81s29.09-3.18,37.24-5.5c8.54-2.45,6.71-33.58,6.71-33.58Z" fill="#000000" data-secondary="true"/>
<path d="M579.68,442.16v16.47s-.44.44-1.17,1.09l37.11,38.37c7.93-3.56,6.18-33.36,6.18-33.36Z" opacity="0.2" style="isolation:isolate"/>
<polygon points="523.53 231.57 523.53 406.15 656.59 511.12 656.59 241.34 523.53 231.57" fill="#fff"/>
<path d="M656.59,511.49a.35.35,0,0,1-.24-.08l-133.05-105a.38.38,0,0,1-.15-.29V231.57a.4.4,0,0,1,.12-.27.38.38,0,0,1,.29-.1L656.61,241a.38.38,0,0,1,.35.38V511.12a.39.39,0,0,1-.21.34A.45.45,0,0,1,656.59,511.49ZM523.9,406,656.21,510.34V241.69L523.9,232Z" fill="#000000" data-secondary="true"/>
<polygon points="532.69 240.73 532.69 387.82 644.39 456.8 644.39 250.5 532.69 240.73" fill="#c3ff00" data-primary="true"/>
<rect x="656.59" y="241.34" width="13.43" height="269.84" fill="#000000" data-secondary="true"/>
<polygon points="540.02 249.9 540.62 381.12 634 434.21 634 271.72 569.91 262.01 565.65 252.94 540.02 249.9" fill="#fff" opacity="0.5" style="isolation:isolate"/>
<polygon points="546.12 265.76 546.12 377.46 628.52 421.41 628.52 280.42 546.12 265.76" fill="#c3ff00" data-primary="true"/>
<ellipse cx="584.57" cy="345.77" rx="22.21" ry="30.6" transform="translate(-79.66 204.05) rotate(-18.56)" fill="#000000" data-secondary="true"/>
<path d="M587,347.6l7.83-8.68a4.44,4.44,0,0,0-.14-5.21c-1.17-1.67-3-2-4-.83l-7.53,8.36-7.55-12.08c-1.09-1.75-2.92-2.3-4-1.21a4.25,4.25,0,0,0-.17,5.13l7.84,12.59-8,8.63a4.44,4.44,0,0,0,.16,5.22,3.39,3.39,0,0,0,2,1.47,2,2,0,0,0,2-.65L583,352l7.53,12.08a3.59,3.59,0,0,0,2.13,1.69,2,2,0,0,0,2-.48,4.29,4.29,0,0,0,.14-5.14Z" fill="#fff"/>
<path d="M606.9,317.53h-.11L560.65,304a.39.39,0,0,1-.26-.47.38.38,0,0,1,.47-.25L607,316.8a.37.37,0,0,1-.1.73Z" fill="#000000" data-secondary="true"/>
<path d="M618.74,307.85h-.1l-59.82-16.69a.38.38,0,0,1,.2-.73l59.82,16.69a.39.39,0,0,1,.26.47A.38.38,0,0,1,618.74,307.85Z" fill="#000000" data-secondary="true"/>
<path d="M600.15,578.4s-29.17,2.7-40,11.34-2.7,13,7.55,15.66,56.17-1.63,62.11-7.57S629.85,577.31,600.15,578.4Z" fill="#c3ff00" data-primary="true"/>
<path d="M629.85,597.91a6.9,6.9,0,0,0,2-4.27c-13.06-.64-30.2,3.14-45.76,8.06a163.23,163.23,0,0,1-16,4.2C583.69,607.53,624.29,603.39,629.85,597.91Z" opacity="0.2" style="isolation:isolate"/>
<path d="M518.05,269.46a.34.34,0,0,1-.17,0l-21.32-11.09a.37.37,0,0,1-.16-.51.38.38,0,0,1,.5-.16l21.32,11.1a.38.38,0,0,1-.17.71Z" fill="#000000" data-secondary="true"/>
<path d="M490.83,255.3a.33.33,0,0,1-.17,0l-6.34-3.3a.37.37,0,0,1-.16-.51.38.38,0,0,1,.5-.16l6.35,3.3a.38.38,0,0,1,.15.51A.35.35,0,0,1,490.83,255.3Z" fill="#000000" data-secondary="true"/>
<path d="M508.65,315.08h0l-7.23-.83a.38.38,0,0,1,.08-.75l7.23.83a.38.38,0,0,1,0,.75Z" fill="#000000" data-secondary="true"/>
<path d="M493.25,313.31h0l-19.49-2.25a.37.37,0,0,1-.33-.42.38.38,0,0,1,.41-.33l19.49,2.26a.38.38,0,0,1,0,.75Z" fill="#000000" data-secondary="true"/>
<path d="M481.81,372.8a.38.38,0,0,1-.1-.74l24.16-6.7a.37.37,0,0,1,.46.26.37.37,0,0,1-.26.46l-24.16,6.7Z" fill="#000000" data-secondary="true"/>
<rect x="131" y="218.99" width="146.14" height="388.79" fill="#e6e6e6"/>
<rect x="139.49" y="231.75" width="127.7" height="93.64" opacity="0.05" style="isolation:isolate"/>
<rect x="177.81" y="270.07" width="51.08" height="17.03" fill="#000000" data-secondary="true"/>
<rect x="139.49" y="341.02" width="127.7" height="93.64" opacity="0.05" style="isolation:isolate"/>
<rect x="177.81" y="379.33" width="51.08" height="17.03" fill="#000000" data-secondary="true"/>
<rect x="139.49" y="450.26" width="127.7" height="93.64" opacity="0.05" style="isolation:isolate"/>
<rect x="177.81" y="488.57" width="51.08" height="17.03" fill="#000000" data-secondary="true"/>
<g clip-path="url(#a)">
<path d="M292.81,585.59s73.24-32.35,112.62-34.79l28.73,63.48h-217Z" fill="#000000" data-secondary="true"/>
<path d="M382,203.11s51.56,61.24,62.42,72.47S455.62,295,452.12,300s-29.84,14.35-57,31.78-104.29,62.42-105,64-8.16-54.36-8.16-54.36L411,288.31l-.39-3.89-41.87-77.53Z" fill="#f9b499"/>
<g clip-path="url(#b)">
<path d="M431.58,293.5l-59.83-87.37-2.88.84,41.87,77.53.39,3.89L282,341.5s.15,1,.35,2.6l8.41,19.3Z" fill="#f7a48b"/>
</g>
<path d="M340.86,176.35s-6.2-5.44-9.3,0-3.48,14.33-1.55,15.12,9.69-.38,10.85-2.72S340.86,176.35,340.86,176.35Z" fill="#f9b499"/>
<path d="M351.71,173.63s-6.58-7-10.85-4.27-3.1,17.46-1.55,18.63,10.85-2,12.08-3.89S351.71,173.63,351.71,173.63Z" fill="#f9b499"/>
<path d="M366.45,174s-5.82-8-11.23-8-9.32,19.39-7.37,20.94,14.72-.38,15.5-1.55A105.56,105.56,0,0,0,366.45,174Z" fill="#f9b499"/>
<path d="M377.79,187.2c0-2.31-1.15-22.49-8.06-21.32s-14.33,17.46-14,20.13S377.79,187.2,377.79,187.2Z" fill="#f9b499"/>
<path d="M411,288.39c7.68,2.18,15.82,5,23.66,6.55a26.92,26.92,0,0,0,3.47.41c-4.71.35-9.38-1-13.89-2.18A105,105,0,0,1,411,288.39Z" fill="#ef947f"/>
<path d="M248.45,614.8c21.06-3.54,48-18,56.07-36.24-6-31.59-13.67-76.08-13.67-103.3,0-45.74,12.08-71.71,6.59-102.68S280.38,321.43,268,313.27c0,0-19,5-38.37,23.26s-36.44,49.54-43.09,79.4S171,537.65,171,561.69s-1.73,53.88-1.73,53.88h69.64A53.25,53.25,0,0,0,248.45,614.8Z" fill="#c3ff00" data-primary="true"/>
<path d="M266.85,320.4,300.15,381,302,414.3s9.28-23.72,5.15-39.2S266.85,320.4,266.85,320.4Z" fill="#000000" data-secondary="true"/>
<polygon points="301.93 414.32 292.64 554.67 302.97 583.56 310.2 525.75 304 410.17 301.93 414.32" fill="#000000" data-secondary="true"/>
<path d="M292.79,263.56s1.16,15.12,2.33,22.49-17.05,28-17.05,28L304.42,354l29.86-23.25s42.28-3.1,46.12-6.61,3.89-41.85,3.89-41.85l10.07-5.82s-9.31-40.27-11.62-49.25l-2.34-8.89s13.57-4.67,10.47-18.12S368,180,348.23,183.09s-24.8,10.47-24.8,10.47-27.93-.38-43.81,12.81-6.2,34.1-1.17,41.47A114.25,114.25,0,0,0,292.79,263.56Z" fill="#f9b499"/>
<path d="M339.53,317.72c-7.75-9.48,0-45.68,6-63.78S337,228.09,337,228.09l44-7.59-.61-2.27a19.61,19.61,0,0,0,7.71-5.46l2.38-14c-4-12.73-23.09-18.85-42.28-15.85-19.77,3.1-24.8,10.47-24.8,10.47s-27.93-.38-43.81,12.81-6.2,34.1-1.17,41.47a114.31,114.31,0,0,0,14.34,15.88s1.16,15.12,2.33,22.49-17,28-17,28L304.42,354l29.86-23.25s32.21-2.38,43-5.3l3.12-1.31S347.33,327.2,339.53,317.72Z" fill="#f7a48b"/>
<path d="M330,225.57c7-4.65,50.33-7.34,50.33-7.34s13.57-4.68,10.47-18.12S367.94,180,348.17,183s-24.8,10.47-24.8,10.47-27.93-.38-43.81,12.81-6.2,34.1-1.17,41.47a115,115,0,0,0,14.34,15.89s.64,8.29,1.44,15.6l12.08,3.4,13.19-7,13.19-3.1s-9.71-7.36-4.27-14.33,15.5-9.3,15.89-14.74S323,230.22,330,225.57Z" fill="#000000" data-secondary="true"/>
<g opacity="0.2">
<path d="M278.35,240.58a.39.39,0,0,1-.27-.1.41.41,0,0,1,0-.58c.14-.17,14.69-16.83,35-22.85,12.2-3.61,30-2.7,44.29-2,9.33.48,17.4.89,20.09-.3,3.66-1.62,5.09-6.56,4.61-10.6s-2.75-7-6-7.56c-2.12-.39-3.52-.15-4.14.71-1,1.44.22,4.46.79,5.51a.41.41,0,1,1-.72.39c-.09-.17-2.28-4.24-.73-6.38.82-1.14,2.49-1.49,4.95-1,3.65.66,6.15,3.75,6.69,8.27.52,4.34-1.06,9.67-5.09,11.45-2.87,1.27-10.64.87-20.46.37-14.24-.73-31.95-1.64-44,1.93-20.12,5.95-34.51,22.43-34.66,22.6A.41.41,0,0,1,278.35,240.58Z"/>
</g>
<g opacity="0.2">
<path d="M289.73,253.47a.41.41,0,0,1-.32-.15.42.42,0,0,1,0-.58c.16-.13,16.16-13.73,29-16,10.83-1.92,13.34-1.49,13.79-.25.35.95-.36,2.52-8.19,7.05-7.11,4.1-7.11,5.13-7.09,5.24.34.53,4.46.07,11.3-2.21a.42.42,0,0,1,.26.79c-2.67.88-11.46,3.63-12.31,1.75-.35-.78.26-2.14,7.42-6.29,7.7-4.44,7.95-5.75,7.84-6.05-.19-.52-2.12-1.13-12.87.78-12.61,2.23-28.44,15.67-28.6,15.81A.42.42,0,0,1,289.73,253.47Z"/>
</g>
<path d="M278.72,299.24l38,59.67-17.48,23.16A459.1,459.1,0,0,0,273,336.53c-12.92-18.84-14.44-22-14.44-22Z" fill="#c3ff00" data-primary="true"/>
<path d="M278.72,299.24l38,59.67-17.48,23.16A459.1,459.1,0,0,0,273,336.53c-12.92-18.84-14.44-22-14.44-22Z" fill="#fff" opacity="0.4" style="isolation:isolate"/>
<g clip-path="url(#c)">
<path d="M279.14,299.24,258.6,314.36s1.15,2.27,9.6,14.42l21.71-13.17Z" fill="#c3ff00" data-primary="true"/>
<path d="M279.14,299.24,258.6,314.36s1.15,2.27,9.6,14.42l21.71-13.17Z" fill="#fff" opacity="0.5" style="isolation:isolate"/>
</g>
<path d="M378.85,445.79s6.2-12.81,7.37-20.94,1.55-12.81,6.2-16.67,19.77-19.39,22.15-25.21,3.86-.38,5,4.27.77,8.92-3.1,11.64a43,43,0,0,0-7.37,7l3.49,2.72s48.46-18.22,53.51-20.13,9.68-.4,10.07,3.48-1.15,4.27-3.49,5.44-27.9,10.06-31.4,11.61l-3.49,1.55,2.72,2.72s13.95-.38,20.94-.76,17.43-1.55,19,.76a4.83,4.83,0,0,1-1.16,6.59,7.5,7.5,0,0,1-6.2,2c-3.49,0-33.34,2.31-33.34,2.31l.78,4.27s31.79,5,32.94,6.59,1.17,2.33,0,4.65-2,2.33-5,2.33-28.18-3.88-28.18-3.88,12.4,7,13.95,8.15,7,2,5.42,4.65-2.32,3.48-4.65,3.1-19-7.75-19-7.75-16.67,2.32-22.15,2.72a77.37,77.37,0,0,1-12.08-.4l-15.5,10.06Z" fill="#f9b499"/>
<path d="M268.77,428.33S257.51,381.42,252.86,371s-31-20.13-43.81,2.72-1.16,48.84,3.51,67.45,34.1,102.67,38.37,113.2,12.08,8.06,16.29,7,122.1-96.16,122.1-96.16L380,444.24l-91.48,47Z" fill="#c3ff00" data-primary="true"/>
<path d="M268.77,428.33S257.51,381.42,252.86,371s-31-20.13-43.81,2.72-1.16,48.84,3.51,67.45,34.1,102.67,38.37,113.2,12.08,8.06,16.29,7,122.1-96.16,122.1-96.16L380,444.24l-91.48,47Z" opacity="0.2"/>
<path d="M376.92,473.81a.5.5,0,0,1-.45-.28L366,452.21a.5.5,0,1,1,.9-.44l10.47,21.32a.5.5,0,0,1-.23.67A.59.59,0,0,1,376.92,473.81Z" fill="#000000" data-secondary="true"/>
<path d="M120.53,345,67,382.17s26.39,27.9,23.67,101.1c-2,55.91,5.38,119.39,16.11,132.3h57s-19.71-108.72-18.3-171C146.58,397.23,132.37,364.37,120.53,345Z" fill="none" stroke="#2e3135" stroke-miterlimit="10"/>
<path d="M127,345,73.42,382.17s26.39,27.9,23.65,101.1c-2,55.91,5.38,119.39,16.11,132.3h57s-19.69-108.72-18.28-171C153,397.23,138.79,364.37,127,345Z" fill="#3f4347"/>
<path d="M120.53,345H127L73.42,382.17H67s0,0,0,0Z" fill="#fff" stroke="#2e3135" stroke-miterlimit="10"/>
<ellipse cx="312.61" cy="277.96" rx="10.7" ry="17.69" transform="translate(-57.38 82.78) rotate(-13.83)" fill="#f9b499"/>
<path d="M338.25,174.8a91.78,91.78,0,0,0-.95,10.58,14.7,14.7,0,0,1,.95-10.58Z" fill="#f7a48b"/>
<path d="M350.32,172.29c.1,3.24.31,6.38.15,9.61a15.77,15.77,0,0,1-.15-9.61Z" fill="#f7a48b"/>
<path d="M363.58,170.53a54.69,54.69,0,0,0,.05,11.37,14.75,14.75,0,0,1-.05-11.37Z" fill="#f7a48b"/>
</g>
<polygon points="214.57 173.16 214.46 173.98 214.33 174.95 214.17 176.11 213.51 180.94 213.44 181.46 212.76 186.52 212.68 187.05 209.96 207.1 209.88 207.65 208.47 217.99 179.41 217.99 179.01 215.05 178.94 214.52 178.72 212.94 178.65 212.42 177.44 203.51 177.36 202.89 174.64 182.94 174.56 182.31 174.07 178.71 173.31 173.16 214.57 173.16" fill="#000000" data-secondary="true"/>
<g opacity="0.2">
<polygon points="214.57 173.16 214.46 173.98 214.33 174.95 214.17 176.11 213.39 176.16 212.57 176.21 200.51 176.99 199.68 177.05 174.07 178.71 173.31 173.16 214.57 173.16"/>
</g>
<path d="M218.25,173.4a285.9,285.9,0,0,1-48.61,0V169h48.61Z" fill="#000000" data-secondary="true"/>
<path d="M207.18,117c-1.52,1.82-2.61,8.56-5.52,9.64-2,.75-3.06-2.14.82-5.79a15.1,15.1,0,0,0,4.08-6.86,57.19,57.19,0,0,0-2.73-8.8c-2.24,2.07-5.82,5-6.84,3.6s2.22-6.34,4.08-8.8a15.14,15.14,0,0,0-2.9-3.23A9.06,9.06,0,0,0,192,94.52a8.13,8.13,0,0,0-4.65,1.7c2,4,4.93,10.62,2.87,12.15-1.91,1.43-4.68-4.09-6.41-8.21a35.84,35.84,0,0,0-4.79,13.91,8.69,8.69,0,0,0,2.73,3c3.77,2.72,8.26,8.21,6,9.43s-4.59-2-6.26-4.88a11.54,11.54,0,0,0-2.87-3.46q0,1.32,0,2.55c.59,15.66,15.89,15.66,15.89,15.66S209.89,132.79,207.18,117Zm-19.25.32c-1.52,0-3.93-2.85-5.06-4.42s-.22-2.65.86-2.35h.05C185.3,111,189.89,117.28,187.93,117.27Zm13.34-3.76h0c1.08-.31,2,.42,1.47,1.8-.67,1.82-1.56,2.54-2.92,1.86C199,116.73,199.75,114,201.27,113.51Z" fill="#c3ff00" data-primary="true"/>
<path d="M192.92,113c1.35,6.86.91,13.93.4,20.86-.54,7.39-1.28,14.8-1,22.22A62.12,62.12,0,0,0,194,168.62c.08.34.62.2.54-.15-3.64-14.71-.29-29.67-.18-44.54a55.32,55.32,0,0,0-.9-11.05c-.07-.35-.61-.2-.54.15Z" fill="#000000" data-secondary="true"/>
<path d="M186.05,136.39c-.15,2.37,2.93,8.45,1.23,11-1.18,1.79-3.74.08-2.76-5.15a15.07,15.07,0,0,0-.75-7.95,55.85,55.85,0,0,0-7.4-5.5c-.58,3-1.75,7.47-3.4,6.94-1.8-.57-1.94-6.42-1.89-9.51a15.12,15.12,0,0,0-4.25-.9,9,9,0,0,0-6.23,1.85,8,8,0,0,0-2.76,4.12c3.94,2,10.24,5.66,9.48,8.11-.7,2.28-6.19-.55-10-2.85a35.92,35.92,0,0,0,4.33,14.06,8.86,8.86,0,0,0,4,.78c4.65,0,11.51,1.75,10.42,4.06s-4.89,1.08-7.93-.25a11.47,11.47,0,0,0-4.35-1.1c.48.72,1,1.41,1.49,2.05,9.72,12.31,22.07,3.28,22.07,3.28S197.57,147.59,186.05,136.39ZM170.68,148c-1.23.88-4.85,0-6.68-.59s-1.75-2-.69-2.4l0,0C164.85,144.47,172.28,146.86,170.68,148Zm8.57-10.9,0,0c.69-.88,1.84-.83,2.25.59.53,1.86.23,3-1.26,3.22C179.33,141,178.29,138.36,179.25,137.1Z" fill="#c3ff00" data-primary="true"/>
<path d="M172.2,141.61a76.43,76.43,0,0,1,10.05,10.69,53.64,53.64,0,0,1,5.49,9.74c1.1,2.41,2.15,4.84,3.22,7.27.15.32.63,0,.48-.29-1.76-4-3.41-8-5.47-11.87a46.78,46.78,0,0,0-6.8-9.44c-2.08-2.27-4.31-4.41-6.58-6.49-.26-.24-.66.15-.39.39Z" fill="#000000" data-secondary="true"/>
<path d="M199.35,162.29s12.29,9.11,22.1-3.12c.51-.64,1-1.33,1.51-2a11.43,11.43,0,0,0-4.36,1.07c-3.06,1.31-6.86,2.51-7.94.19s5.8-4,10.45-4a8.91,8.91,0,0,0,3.95-.75,35.8,35.8,0,0,0,4.44-14c-3.85,2.28-9.36,5.06-10.05,2.78-.74-2.46,5.59-6.07,9.54-8.05a8.06,8.06,0,0,0-2.73-4.14,9.06,9.06,0,0,0-6.22-1.89,15.11,15.11,0,0,0-4.25.87c0,3.09-.15,8.94-2,9.5-1.65.52-2.79-4-3.35-7a54.35,54.35,0,0,0-7.44,5.45,15,15,0,0,0-.8,7.94c.94,5.23-1.63,6.92-2.8,5.13-1.68-2.6,1.44-8.66,1.31-11C189.15,150.34,199.35,162.29,199.35,162.29Zm24-14.31,0,0c1,.4,1.14,1.8-.71,2.4s-5.46,1.43-6.69.54C214.44,149.78,221.89,147.44,223.39,148Zm-16.89-4.24c-1.49-.26-1.78-1.37-1.24-3.22.42-1.42,1.57-1.47,2.26-.58l0,0C208.5,141.25,207.44,143.9,206.5,143.74Z" fill="#c3ff00" data-primary="true"/>
<path d="M214.17,144.14c-7.43,7.45-13.33,16.09-19,24.88-.2.31.28.59.48.29,5.68-8.75,11.55-17.36,18.95-24.77a.28.28,0,0,0-.4-.4Z" fill="#000000" data-secondary="true"/>
<path d="M218.25,169c0,.45-10.88.81-24.31.81s-24.3-.36-24.3-.81,10.88-.81,24.3-.81S218.25,168.54,218.25,169Z" fill="#000000" data-secondary="true"/>
<g opacity="0.2">
<path d="M218.25,169c0,.45-10.88.81-24.31.81s-24.3-.36-24.3-.81,10.88-.81,24.3-.81S218.25,168.54,218.25,169Z"/>
</g>
<path d="M440.36,183.78a5.81,5.81,0,0,1,1.4,3.87,6.18,6.18,0,0,1-.86,3.24,5.87,5.87,0,0,1-2.55,2.25,9.37,9.37,0,0,1-4.12.83h-7.5v-23.6h7.37a7.66,7.66,0,0,1,5.32,1.63,5.43,5.43,0,0,1,1.8,4.22,5.36,5.36,0,0,1-1.21,3.65,6.12,6.12,0,0,1-3.09,1.9A5.67,5.67,0,0,1,440.36,183.78Zm-12.11-2.69h5.91a6,6,0,0,0,4.09-1.26,4.41,4.41,0,0,0,1.43-3.48,4.3,4.3,0,0,0-1.42-3.39,6.29,6.29,0,0,0-4.27-1.24h-5.74Zm10.37,10.21a5.09,5.09,0,0,0,0-7.5,6.86,6.86,0,0,0-4.55-1.4h-5.78v10.26h5.88A6.86,6.86,0,0,0,438.62,191.3Z" fill="#1e3163"/>
<path d="M446.38,179.88a7.94,7.94,0,0,1,3.13-3.26,9,9,0,0,1,4.55-1.14,8.34,8.34,0,0,1,4.91,1.41,7.45,7.45,0,0,1,2.82,3.6v-4.77h1.52V194h-1.52v-4.81a7.45,7.45,0,0,1-2.84,3.65,8.28,8.28,0,0,1-4.89,1.43,8.93,8.93,0,0,1-4.55-1.16,8,8,0,0,1-3.13-3.3,11.5,11.5,0,0,1,0-9.9Zm14.42.73a7,7,0,0,0-2.7-2.83,7.55,7.55,0,0,0-3.84-1,7.75,7.75,0,0,0-3.9,1,6.62,6.62,0,0,0-2.62,2.77,10.33,10.33,0,0,0,0,8.61,6.71,6.71,0,0,0,2.64,2.79,8.11,8.11,0,0,0,7.73,0,6.89,6.89,0,0,0,2.71-2.82,8.93,8.93,0,0,0,1-4.26A8.7,8.7,0,0,0,460.8,180.61Z" fill="#1e3163"/>
<path d="M469,179.88a8,8,0,0,1,3.13-3.26,9,9,0,0,1,4.55-1.14,8.45,8.45,0,0,1,4.84,1.39,7.55,7.55,0,0,1,2.89,3.62v-11.4h1.52V194h-1.52v-4.84a7.46,7.46,0,0,1-2.82,3.68,8.28,8.28,0,0,1-4.91,1.43,8.93,8.93,0,0,1-4.55-1.16,8.1,8.1,0,0,1-3.13-3.3,11.5,11.5,0,0,1,0-9.9Zm14.42.73a7,7,0,0,0-2.7-2.83,7.54,7.54,0,0,0-3.83-1,7.72,7.72,0,0,0-3.9,1,6.64,6.64,0,0,0-2.63,2.77,10.33,10.33,0,0,0,0,8.61,6.71,6.71,0,0,0,2.64,2.79,7.67,7.67,0,0,0,3.89,1,7.58,7.58,0,0,0,3.84-1,6.89,6.89,0,0,0,2.71-2.82,8.93,8.93,0,0,0,1-4.26A8.7,8.7,0,0,0,483.42,180.61Z" fill="#1e3163"/>
<path d="M520.31,177.33a8.74,8.74,0,0,0-3.34-4.24,9.66,9.66,0,0,0-5.53-1.58,9.86,9.86,0,0,0-5,1.31,9.47,9.47,0,0,0-3.57,3.74,12.82,12.82,0,0,0,0,11.29,9.32,9.32,0,0,0,3.57,3.71,10.41,10.41,0,0,0,9.91.09,9.13,9.13,0,0,0,3.5-3.45,11.08,11.08,0,0,0,1.44-5.22H510.73V181.7H522.8v1a12.63,12.63,0,0,1-1.58,5.91,10.66,10.66,0,0,1-4,4.1,11.24,11.24,0,0,1-5.75,1.48,11.46,11.46,0,0,1-5.88-1.53,10.67,10.67,0,0,1-4.1-4.27,13.79,13.79,0,0,1,0-12.43,10.67,10.67,0,0,1,4.1-4.27,11.46,11.46,0,0,1,5.88-1.53,11.32,11.32,0,0,1,6.57,1.9,10.82,10.82,0,0,1,4,5.26Z" fill="#1e3163"/>
<path d="M527.56,179.88a8,8,0,0,1,3.12-3.26,9.05,9.05,0,0,1,4.56-1.14,8.38,8.38,0,0,1,4.91,1.41,7.51,7.51,0,0,1,2.82,3.6v-4.77h1.51V194H543v-4.81a7.57,7.57,0,0,1-2.84,3.65,8.33,8.33,0,0,1-4.89,1.43,9,9,0,0,1-4.56-1.16,8.08,8.08,0,0,1-3.12-3.3,11.41,11.41,0,0,1,0-9.9Zm14.42.73a7,7,0,0,0-2.71-2.83,7.51,7.51,0,0,0-3.83-1,7.72,7.72,0,0,0-3.9,1,6.62,6.62,0,0,0-2.62,2.77,10.33,10.33,0,0,0,0,8.61,6.71,6.71,0,0,0,2.64,2.79,8.11,8.11,0,0,0,7.73,0,6.93,6.93,0,0,0,2.7-2.82,8.93,8.93,0,0,0,1-4.26A8.7,8.7,0,0,0,542,180.61Z" fill="#1e3163"/>
<path d="M552.25,177v12.06a4,4,0,0,0,.74,2.78,3.61,3.61,0,0,0,2.62.75h2V194h-2.29a4.79,4.79,0,0,1-3.51-1.13,5.17,5.17,0,0,1-1.13-3.75V177H548v-1.31h2.75v-4.64h1.52v4.64h5.41V177Z" fill="#1e3163"/>
<path d="M578,185.43H562.26a8.41,8.41,0,0,0,1.08,4.13,6.57,6.57,0,0,0,2.65,2.53,7.82,7.82,0,0,0,3.6.84,7.45,7.45,0,0,0,4.5-1.33,5.75,5.75,0,0,0,2.29-3.62H578a7.35,7.35,0,0,1-2.76,4.53,8.87,8.87,0,0,1-5.61,1.73,9,9,0,0,1-4.57-1.15,8,8,0,0,1-3.16-3.27,11.56,11.56,0,0,1,0-10,7.85,7.85,0,0,1,3.14-3.24,9.32,9.32,0,0,1,4.61-1.13,8.85,8.85,0,0,1,4.55,1.13,7.63,7.63,0,0,1,3,3,8.31,8.31,0,0,1,1,4C578.09,184.42,578.07,185,578,185.43Zm-2.31-5.34a6,6,0,0,0-2.6-2.51,7.86,7.86,0,0,0-3.56-.82,7.75,7.75,0,0,0-3.55.82,6.53,6.53,0,0,0-2.66,2.51,8.25,8.25,0,0,0-1.09,4.1h14.32A7.46,7.46,0,0,0,575.72,180.09Z" fill="#1e3163"/>
<path d="M606.53,175.72,600.78,194h-1.44l-5.82-16.17L587.67,194h-1.44l-5.75-18.25h1.58L587,192.25l5.85-16.53h1.44l5.82,16.47L605,175.72Z" fill="#1e3163"/>
<path d="M610,179.88a8,8,0,0,1,3.13-3.26,9,9,0,0,1,4.55-1.14,8.34,8.34,0,0,1,4.91,1.41,7.47,7.47,0,0,1,2.83,3.6v-4.77H627V194h-1.51v-4.81a7.53,7.53,0,0,1-2.85,3.65,8.28,8.28,0,0,1-4.89,1.43,8.93,8.93,0,0,1-4.55-1.16,8.1,8.1,0,0,1-3.13-3.3,11.5,11.5,0,0,1,0-9.9Zm14.42.73a7,7,0,0,0-2.7-2.83,7.51,7.51,0,0,0-3.83-1,7.72,7.72,0,0,0-3.9,1,6.64,6.64,0,0,0-2.63,2.77,10.33,10.33,0,0,0,0,8.61,6.71,6.71,0,0,0,2.64,2.79,7.67,7.67,0,0,0,3.89,1,7.58,7.58,0,0,0,3.84-1,6.89,6.89,0,0,0,2.71-2.82,8.93,8.93,0,0,0,1-4.26A8.7,8.7,0,0,0,624.46,180.61Z" fill="#1e3163"/>
<path d="M646.73,175.72l-10.62,26.82h-1.55L638,194l-7.66-18.25h1.64l6.86,16.57,6.39-16.57Z" fill="#1e3163"/>
<path d="M504.73,121H484.47v9a9.43,9.43,0,0,1,3.64-2.34,13.75,13.75,0,0,1,5.06-.91,14,14,0,0,1,8.09,2.21,12.92,12.92,0,0,1,4.7,5.71,19.12,19.12,0,0,1,1.5,7.6q0,7.59-4.29,12t-12.08,4.45a21.16,21.16,0,0,1-9-1.78,13.77,13.77,0,0,1-5.91-5,14.35,14.35,0,0,1-2.27-7.34h10.84a5.9,5.9,0,0,0,1.88,3.35,6,6,0,0,0,4.09,1.33,5.37,5.37,0,0,0,4.55-1.95,8.36,8.36,0,0,0,1.49-5.2,6.93,6.93,0,0,0-1.56-4.87,6.86,6.86,0,0,0-8.18-.61,5,5,0,0,0-1.88,2.82H474.41V111.3h30.32Z" fill="#1e3163"/>
<path d="M517.88,116.82q4.32-6.43,13.93-6.43t13.92,6.43q4.32,6.42,4.32,17.59t-4.32,17.73q-4.31,6.42-13.92,6.43t-13.93-6.43q-4.32-6.44-4.32-17.73T517.88,116.82Zm19.84,7.5q-1.44-3.54-5.91-3.54t-5.91,3.54c-1,2.36-1.43,5.72-1.43,10.09a42.12,42.12,0,0,0,.52,7.31,9.3,9.3,0,0,0,2.11,4.67,7.08,7.08,0,0,0,9.41,0,9.3,9.3,0,0,0,2.11-4.67,42.12,42.12,0,0,0,.52-7.31Q539.14,127.85,537.72,124.32Z" fill="#1e3163"/>
<path d="M557.52,148.24q6.36-5.25,10-8.63a41.3,41.3,0,0,0,6.2-7.08,12.78,12.78,0,0,0,2.53-7.21,6.34,6.34,0,0,0-1.23-4.15,4.51,4.51,0,0,0-3.7-1.5,4.56,4.56,0,0,0-3.86,1.85,8.49,8.49,0,0,0-1.4,5.23H555.38a18.26,18.26,0,0,1,2.37-9.22,13.68,13.68,0,0,1,5.9-5.45,18.68,18.68,0,0,1,8.15-1.76q7.74,0,11.66,4a14,14,0,0,1,3.93,10.33,20.25,20.25,0,0,1-4.74,12.89,70.06,70.06,0,0,1-12.08,11.59H588.1v9H555.51v-8.24C557,148.7,557.65,148.16,557.52,148.24Z" fill="#1e3163"/>
</svg>